<svg xmlns="http://www.w3.org/2000/svg" viewBox="0 0 500 500"><title>Big Timber Logo Mark</title><rect x="3.09809" y="311.63679" width="494.40191" height="7.23772"/><rect x="2.5" y="183.12549" width="494.40191" height="7.23772"/><polygon points="440.04 360.202 250.896 469.403 61.754 360.202 61.754 326.13 52.707 326.13 52.707 365.425 250.896 479.849 449.087 365.425 449.087 326.13 440.04 326.13 440.04 360.202"/><polygon points="61.754 141.799 250.896 32.597 440.04 141.799 440.04 175.615 449.087 175.615 449.087 136.576 250.896 22.151 52.707 136.576 52.707 175.615 61.754 175.615 61.754 141.799"/><path d="M275.82075,143.283l-22.96711-22.96711-.009-16.38444,16.06286,16.06239a1.99072,1.99072,0,0,0,2.77592-.00047,1.966,1.966,0,0,0,0-2.77663L252.8416,98.37486l-.00921-16.79857,11.93782,11.93807a1.9897,1.9897,0,0,0,2.77545-.00048,1.964,1.964,0,0,0,.0007-2.77568L252.33278,75.52392a2.10185,2.10185,0,0,0-2.8713,0L234.24861,90.73679a1.96569,1.96569,0,0,0-.00024,2.77709,1.98966,1.98966,0,0,0,2.77615,0L248.90592,81.632l.00921,16.78063-18.8043,18.80406a1.96541,1.96541,0,0,0-.00047,2.77568,1.99776,1.99776,0,0,0,2.77615.001l16.03169-16.03169.00921,16.367L225.97328,143.283a1.9654,1.9654,0,0,0,0,2.77615,1.99085,1.99085,0,0,0,2.77639,0L248.93,125.8776l.0255,36.61175a1.963,1.963,0,1,0,3.926-.00141l-.025-36.61648,20.18836,20.18765a1.99815,1.99815,0,0,0,2.7745.00095,1.96428,1.96428,0,0,0,.00142-2.7771Z"/><path d="M196.55906,138.29018l-.00489-8.86416,8.9024,8.9024a1.34847,1.34847,0,0,0,1.879-.00047,1.33051,1.33051,0,0,0,0-1.87951l-10.78354-10.78332-.0049-9.10242,6.52888,6.52911a1.3473,1.3473,0,0,0,1.87882-.00047,1.3297,1.3297,0,0,0,.00023-1.87905l-8.75483-8.75552a1.25849,1.25849,0,0,0-.93066-.3828,1.31438,1.31438,0,0,0-1.00247.38373l-8.75366,8.75366a1.33024,1.33024,0,0,0-.00023,1.88,1.34669,1.34669,0,0,0,1.879,0l6.49694-6.49694.00513,9.09217L183.13273,136.448a1.33052,1.33052,0,0,0-.00047,1.87951,1.39639,1.39639,0,0,0,1.87905.00047l8.88515-8.88515.00489,8.85484-13.15007,13.15008a1.33052,1.33052,0,0,0,.00047,1.87951,1.34758,1.34758,0,0,0,1.87905-.00047l11.27242-11.27289.01422,20.58654a1.32886,1.32886,0,0,0,2.65771-.0014l-.01422-20.5884,11.27662,11.27662a1.34731,1.34731,0,0,0,1.87811,0,1.32968,1.32968,0,0,0,.0007-1.88Z"/><path d="M321.04252,151.44725,307.885,138.29018l-.00467-8.86416,8.9024,8.9024a1.34714,1.34714,0,0,0,1.87905-.00047,1.33,1.33,0,0,0,0-1.87951l-10.78331-10.78332-.0056-9.10242,6.52911,6.52911a1.34817,1.34817,0,0,0,1.87952-.00093,1.32944,1.32944,0,0,0-.00047-1.87859l-8.75459-8.75552a1.27771,1.27771,0,0,0-.9302-.3828,1.34644,1.34644,0,0,0-1.00294.38373l-8.75319,8.75366a1.33,1.33,0,0,0-.00047,1.88,1.34581,1.34581,0,0,0,1.87905,0l6.49647-6.49694.0056,9.09217-10.76233,10.76187a1.33053,1.33053,0,0,0,0,1.879,1.39638,1.39638,0,0,0,1.87905.00047l8.88468-8.88515.00559,8.85484-13.15007,13.15008a1.33109,1.33109,0,0,0,0,1.87951,1.349,1.349,0,0,0,1.87951-.00047l11.27243-11.27289.014,20.58654a1.33107,1.33107,0,0,0,1.32886,1.32792,1.32926,1.32926,0,0,0,1.32885-1.32932l-.014-20.5884,11.27615,11.27662a1.39857,1.39857,0,0,0,1.87765.00047,1.32942,1.32942,0,0,0,.0014-1.88045Z"/><path d="M133.96644,337.83329h-4.27633l-7.62987,17.00885-.07923.17767h4.34178l1.23383-2.90322h8.5187l1.23383,2.90322h4.36639l-7.67563-17.1122Zm-4.87479,10.693,2.73589-6.42262,2.71374,6.42262Z"/><polygon points="162.751 338.2 162.773 338.168 162.773 337.833 158.442 337.833 154.567 343.754 150.667 337.833 146.336 337.833 146.336 338.168 151.995 346.378 146.286 354.701 146.264 354.734 146.264 355.02 150.643 355.02 154.567 349.169 158.491 355.02 162.87 355.02 162.87 354.733 157.091 346.378 162.751 338.2"/><polygon points="173.44 348.125 181.787 348.125 181.787 344.559 173.44 344.559 173.44 341.545 182.295 341.545 182.295 337.833 169.487 337.833 169.487 355.02 182.633 355.02 182.633 351.284 173.44 351.284 173.44 348.125"/><polygon points="198.636 341.448 203.789 341.448 203.789 355.02 207.791 355.02 207.791 341.448 212.944 341.448 212.944 337.833 198.636 337.833 198.636 341.448"/><polygon points="231.173 344.631 223.852 344.631 223.852 337.857 219.827 337.857 219.827 355.044 223.852 355.044 223.852 348.343 231.173 348.343 231.173 355.044 235.15 355.044 235.15 337.857 231.173 337.857 231.173 344.631"/><path d="M258.0582,343.66876c0-2.81069-2.00012-5.83547-6.39161-5.83547h-8.15795v17.18652h4.02582v-5.5643h2.54641l4.33046,5.5643h4.37279v-.46164l-4.5603-5.51065C257.55964,347.78809,258.03654,345.62606,258.0582,343.66876Zm-6.34338,2.34118h-4.18036v-4.68285h4.13213a2.36274,2.36274,0,0,1,2.414,2.43814A2.23545,2.23545,0,0,1,251.71482,346.00994Z"/><path d="M274.067,337.42185c-5.63172,0-9.27071,3.53465-9.27071,9.00445,0,5.4703,3.639,9.00495,9.27071,9.00495s9.27071-3.53465,9.27071-9.00495C283.3377,340.9565,279.69871,337.42185,274.067,337.42185Zm0,14.3463a5.09914,5.09914,0,0,1-5.31724-5.34185,5.16639,5.16639,0,0,1,5.31724-5.36546,5.35378,5.35378,0,0,1,0,10.70731Z"/><polygon points="308.006 343.733 306.659 348.782 302.827 337.917 302.798 337.833 300.151 337.833 296.454 348.781 295.037 343.698 292.933 337.916 292.902 337.833 288.399 337.833 294.807 354.996 298.079 354.996 301.501 345.767 305.041 354.996 308.313 354.996 314.488 338.002 314.549 337.833 310.046 337.833 308.006 343.733"/><rect x="321.08691" y="337.83329" width="4.00171" height="17.18652"/><polygon points="344.988 343.65 345.212 348.576 336.916 337.882 336.878 337.833 333.448 337.833 333.448 355.02 337.523 355.02 337.523 349.616 337.388 344.436 345.609 355.02 349.038 355.02 349.038 337.833 344.988 337.833 344.988 343.65"/><path d="M365.01708,344.72788v3.39685h4.04059v2.52081a5.2776,5.2776,0,0,1-3.479,1.12261c-3.83536,0-5.19616-2.86483-5.19616-5.31773,0-3.44065,1.89381-5.4137,5.19616-5.4137a5.8033,5.8033,0,0,1,3.88064,1.46465l.08908.08515,2.52179-2.5218-.08711-.08908a8.41139,8.41139,0,0,0-6.4044-2.65074,8.97747,8.97747,0,0,0-6.9374,2.75458,9.48956,9.48956,0,0,0-2.21224,6.37094c0,4.37673,2.39729,9.05318,9.12553,9.05318,3.16258,0,5.517-1.07635,6.99843-3.19851l.02264-.033v-7.54423Z"/><path d="M285.59917,388.80782a1.46122,1.46122,0,0,0-1.07655-.69741,44.58229,44.58229,0,0,1-7.33055-1.88885,32.81626,32.81626,0,0,1-7.94256-4.3595c-.2062-.13165-5.05926-3.22987-6.065-3.65973a1.19487,1.19487,0,0,0-1.39151.32983l-3.73428,4.4232a.58981.58981,0,0,0-.07739.10711.45056.45056,0,0,0-.03255.042l-.0689.10522-.06936.03492-.2397,2.16394a1.20116,1.20116,0,0,0,.27957.90833c-1.03549,1.20276-2.683,3.18315-3.95535,5.02246a1.39085,1.39085,0,0,0-.0939.1609c-.312.5969-1.51419,2.86182-2.90358,5.04959-1.39163-2.19131-2.59675-4.46189-2.91844-5.07743a1.2581,1.2581,0,0,0-.08093-.13542c-1.27118-1.83742-2.91844-3.81734-3.95393-5.0201a1.203,1.203,0,0,0,.27957-.90975l-.2397-2.16252-.067-.01085-.1031-.17129a.54264.54264,0,0,0-.06607-.09343l-3.74726-4.43782a1.19537,1.19537,0,0,0-1.38938-.32983c-1.00695.4308-5.86,3.529-6.1,3.68427a32.70053,32.70053,0,0,1-7.92463,4.342,44.60541,44.60541,0,0,1-7.29422,1.87988,1.479,1.479,0,0,0-1.10013.704,1.635,1.635,0,0,0-.15076,1.26034,20.5833,20.5833,0,0,0,8.048,12.51179,3.08407,3.08407,0,0,0,1.4965.89275,1.45635,1.45635,0,0,0,1.60031-.75072l4.258-7.62a31.23729,31.23729,0,0,1,2.3423-3.91312l.07951-.11749a1.64581,1.64581,0,0,1,1.1334-.5266,1.48271,1.48271,0,0,1,.92319.39448l1.30115,1.88979.07314.09531c1.41911,1.85983,4.92691,6.44063,8.12045,10.48469-1.1399,1.30705-2.4309,2.77689-3.656,4.149l-.06559.07031c-1.701,1.90253-2.94274,3.23978-3.69135,3.97588-2.82242,2.78915-8.90679,10.95277-8.96413,11.03016l-3.3266,4.44632a2.74144,2.74144,0,0,0,.05757,3.57008,7.24407,7.24407,0,0,0,1.36981,1.34055c.40839.45156,1.1275.645,2.515.68466,1.41345.04058,2.20051.08305,2.42559.09437a3.298,3.298,0,0,0,.511.03822,3.3955,3.3955,0,0,0,.61507-.0552,2.91576,2.91576,0,0,0,2.28167-1.99266l.7243-2.06957a16.73756,16.73756,0,0,1,2.52822-4.68886c.65069-.74459,1.49673-1.73879,2.33027-2.7179l.19039-.22366c.90432-1.06451,2.58767-3.04632,2.79836-3.23176.30482-.24584.99869-1.03195,3.59532-4.02636l.16185-.18639c.93888-1.08221,1.99466-2.29842,3.07893-3.538,1.08428,1.23957,2.14006,2.456,3.07882,3.538l.16185.18639c2.59663,2.99441,3.2905,3.78052,3.58164,4.015.22437.19676,1.90772,2.17857,2.81227,3.24355l.19016.22319c.83354.97911,1.67958,1.97331,2.33051,2.71838a16.721,16.721,0,0,1,2.52515,4.68036l.72713,2.07806a2.916,2.916,0,0,0,2.28167,1.99219,3.40889,3.40889,0,0,0,.62.05568,2.77494,2.77494,0,0,0,.45841-.03351c.27273-.01651,1.05979-.059,2.473-.09956,1.38774-.03963,2.10685-.2331,2.51525-.68466a7.24158,7.24158,0,0,0,1.37-1.341,2.73336,2.73336,0,0,0,.07762-3.54459l-3.345-4.4685c-.05921-.08022-6.14359-8.24384-8.967-11.03394-.74883-.73609-1.99242-2.0757-3.69677-3.982l-.06346-.06936c-1.21976-1.36532-2.51076-2.83493-3.65177-4.14292,3.19359-4.04406,6.70139-8.62486,8.1205-10.48469l1.37523-1.98652a1.4698,1.4698,0,0,1,.91281-.39259,1.60642,1.60642,0,0,1,1.14284.52613l.08.118a31.39406,31.39406,0,0,1,2.35906,3.94709l4.22855,7.562a1.46336,1.46336,0,0,0,1.61329.77431,3.08553,3.08553,0,0,0,1.49579-.89275,20.5833,20.5833,0,0,0,8.048-12.51179A1.63313,1.63313,0,0,0,285.59917,388.80782Zm-64.68092,6.9802a20.7355,20.7355,0,0,1-2.38265-5.46837c.855-.16185,2.29819-.45676,3.83362-.86869,2.04149,2.73914,4.27621,6.20116,5.11706,7.52284l-1.13788,2.33381-.77361,1.384-.02525-.01746M279.42537,389.451c1.53543.41193,2.97861.70684,3.83362.86869a20.7355,20.7355,0,0,1-2.38265,5.46837,19.07964,19.07964,0,0,1-4.62067,4.879c-.01227.008-.02407.016-.03587.025l-.7611-1.36037-1.15039-2.35787"/><path d="M56.78187,273.2924A18.68467,18.68467,0,0,1,52.058,286.25262C45.033,294.61,39.58226,293.5201,16.5687,293.27768a3.98905,3.98905,0,0,1-2.90688-.96889c-.84787-.9689-.84787-2.78606-.84787-6.783V255.24491l-4.84506-2.78606A1.82864,1.82864,0,0,1,7,250.76309a1.89206,1.89206,0,0,1,.96889-1.81677l4.84506-2.78566v-31.977c0-2.90668.24222-4.72384.72666-5.20829,1.21132-1.21131,3.876-.96889,13.08143-.84788,3.1493,0,5.69274,0,7.63072-.121a20.30688,20.30688,0,0,1,14.17153,4.72384c7.87313,6.783,10.41677,23.13477,3.02808,32.94549-1.69576,2.30162-1.69576,3.27051.24222,5.57173,3.63374,4.11838,5.3295,9.32667,5.20849,15.38284C56.78187,268.20513,56.78187,270.50634,56.78187,273.2924Zm-21.56-32.098a5.69066,5.69066,0,0,0,3.39152-2.54364,15.176,15.176,0,0,0,1.81677-7.38849l-.72667-3.63354a6.72451,6.72451,0,0,0-6.29839-5.08728c-3.1493-.24242-4.60283.72647-5.08728,3.75455C27.46992,232.23115,26.74325,243.98045,35.22185,241.19439Zm5.20829,19.98528c-1.33233-3.75456-6.05617-6.54062-9.44769-4.96587-3.27031,1.69576-2.78586,3.27051-2.78586,11.50688,0,8.96284-.60566,10.78,3.63374,11.022,3.75495.12141,6.29839-1.0899,7.75193-3.75455A16.183,16.183,0,0,0,40.43014,261.17967Z"/><path d="M89.54071,249.06733a1.93371,1.93371,0,0,1,.96889,1.69576,1.80025,1.80025,0,0,1-.96909,1.69576l-4.84485,2.78606V287.1005c0,6.05617-.24223,6.17718-6.17738,6.17718-2.30122,0-3.997,0-5.20829-.121-3.27031-.24243-2.90687-3.27051-2.90687-6.662V255.24491l-4.84506-2.78606a1.715,1.715,0,0,1-1.0901-1.69576,1.82735,1.82735,0,0,1,1.0901-1.69576l4.84506-2.78566v-31.9766c0-2.90707.24222-4.72384.72666-5.20829,1.21132-1.21131,8.4786-.96929,10.78-.84788,3.2703.363,2.78586,3.02808,2.78586,7.14607v30.8867l4.84485,2.78566Z"/><path d="M145.55454,227.74973a30.86071,30.86071,0,0,0-.121,3.755c0,3.51253.72667,6.54062-2.90707,6.78264-2.78586.12141-5.57172.12141-8.47859,0-3.27031-.242-2.42243,0-2.78587-8.4784-.121-3.99737-3.02808-7.99435-7.26748-7.38889-4.2392.60586-5.81394,5.20869-5.81394,11.02243v33.91479a20.69651,20.69651,0,0,0,.96909,6.904c1.81677,5.93516,8.35758,6.17718,11.26446.84788a2.89187,2.89187,0,0,1,.36343-.84788,34.03576,34.03576,0,0,0-.12121-13.56607c-.24222-1.45334-1.33233-2.30121-3.02809-2.54364q-2.907-.363-2.90687-3.63354c0-4.2394,0-6.783.121-7.5095a2.83106,2.83106,0,0,1,3.02809-2.90708c1.0903-.12141,3.75495-.12141,7.99435-.12141,3.2703,0,5.45051,0,6.54061.12141a3.07154,3.07154,0,0,1,2.1802.72687c.9689.96889.9689,2.30122.9689,5.45031,0,26.16286,2.30141,31.37115-7.3885,39.24409-9.5687,7.87333-26.04164,5.69273-32.34-8.84183a18.12644,18.12644,0,0,1-.84788-6.54062V255.48693l-4.84486-2.66465a1.933,1.933,0,0,1-.96909-1.69576,1.80028,1.80028,0,0,1,.96909-1.69576l4.84486-2.78566c0-9.32667,0-15.74627-.12121-19.13779,0-9.08425,7.26748-19.50083,18.28971-19.37982h4.36061c5.57153.12141,10.29537,2.54364,14.05032,7.38849A18.136,18.136,0,0,1,145.55454,227.74973Z"/><path d="M210.8734,214.18366c0,2.42262,0,4.2394-.121,5.20829a3.7431,3.7431,0,0,1-.60566,2.30161c-.96909.84788-2.66465.84788-4.845.84788-2.42243,0-4.96607-.12141-6.41941,1.33233-1.45353,1.33232-1.33252,3.39151-1.33252,8.11536v14.29254l5.3295,3.02808a2.08706,2.08706,0,0,1,.96909,1.69576,1.9924,1.9924,0,0,1-.96909,1.81677l-5.3295,3.02809v30.03881c0,4.36041.36343,7.14608-2.54344,7.3885q-4.724.18152-9.08445,0c-3.1491-.121-2.66465-3.02809-2.66465-6.66163V255.97138l-5.57172-3.1491a1.91229,1.91229,0,0,1-.84788-1.81677,1.9646,1.9646,0,0,1,.84788-1.69576l5.57172-3.14909V230.77781c0-4.11838,0-5.69273-1.0901-6.904-1.21132-1.33233-3.63375-1.33233-6.05617-1.33233a15.57567,15.57567,0,0,1-2.78586-.12141c-2.42243-.121-3.27031-.72647-3.39152-3.14909-.121-2.54364-.121-5.32931,0-8.11537a2.95582,2.95582,0,0,1,.72687-2.05879c.96889-.84788,2.42242-.60586,5.20828-.60586h29.06973C210.63118,208.49092,210.8734,208.49092,210.8734,214.18366Z"/><path d="M243.38982,249.06733a1.93373,1.93373,0,0,1,.96889,1.69576,1.80027,1.80027,0,0,1-.96909,1.69576l-4.84486,2.78606V287.1005c0,6.05617-.24222,6.17718-6.17738,6.17718-2.30121,0-3.997,0-5.20829-.121-3.2703-.24243-2.90687-3.27051-2.90687-6.662V255.24491l-4.845-2.78606a1.715,1.715,0,0,1-1.0901-1.69576,1.82735,1.82735,0,0,1,1.0901-1.69576l4.845-2.78566v-31.9766c0-2.90707.24222-4.72384.72667-5.20829,1.21131-1.21131,8.4786-.96929,10.78-.84788,3.27031.363,2.78586,3.02808,2.78586,7.14607v30.8867l4.84486,2.78566Z"/><path d="M326.71862,251.12652a1.80012,1.80012,0,0,1-.96889,1.69576l-4.84506,2.78606v30.76529c0,3.39152.24222,6.54061-2.54364,6.904a42.12136,42.12136,0,0,1-9.5687,0c-2.42242-.24242-2.1802-3.02809-2.1802-6.05617V271.47523a18.779,18.779,0,0,0-1.21131-7.02506.66414.66414,0,0,0-.72667-.48444,1.099,1.099,0,0,0-.84788.36343,9.08737,9.08737,0,0,0-1.33233,3.63354l-2.54363,12.59679c-.84788,4.11838-1.57475,7.14647-2.0592,9.32667a6.58982,6.58982,0,0,1-1.33232,2.78606c-.96909.84788-4.72385.96889-8.11536.72647-2.42243-.121-3.1491-.72647-3.63374-3.02808-.72667-3.1491-2.54344-10.78-3.02809-12.47577-1.21111-5.57173-2.30122-9.93214-3.02808-13.08123a30.75107,30.75107,0,0,0-1.21112-3.02809,1.02179,1.02179,0,0,0-1.817,0,10.71878,10.71878,0,0,0-.60565,4.2394V286.616c0,3.39112.24242,6.29819-2.78586,6.78264a55.31739,55.31739,0,0,1-8.963,0c-2.90707-.36343-2.54363-2.90667-2.54363-6.904v-30.8863l-4.84486-2.78606a1.80025,1.80025,0,0,1-.96909-1.69576,1.933,1.933,0,0,1,.96909-1.69576l4.84486-2.78566V215.395c0-3.51253-.36344-6.54061,2.66465-6.66162h14.77718a2.71079,2.71079,0,0,1,2.66465,2.42222l1.69576,8.35779,6.29839,31.85559c.12121.60545.48465,1.69575.96909,3.14909s2.18021,1.69576,3.02809-.24242a1.87456,1.87456,0,0,0,.24222-.96889l2.90707-15.74588c1.21112-6.4196,2.18021-11.7493,3.02809-15.62526.24222-1.33233.48444-3.02809.96889-5.20829.96909-5.45032.60565-7.994,4.23939-7.994q8.17578-.18211,13.8081,0c3.27031.121,2.78586,3.02808,2.78586,6.54061V246.6451l4.84506,2.78566A1.93287,1.93287,0,0,1,326.71862,251.12652Z"/><path d="M384.70213,273.2924a18.68467,18.68467,0,0,1-4.72384,12.96022c-7.02506,8.35738-12.47577,7.26748-35.48913,7.02506a3.98958,3.98958,0,0,1-2.90708-.96889c-.84787-.9689-.84787-2.78606-.84787-6.783V255.24491l-4.84506-2.78606a1.82864,1.82864,0,0,1-.96889-1.69576,1.89206,1.89206,0,0,1,.96889-1.81677l4.84506-2.78566v-31.977c0-2.90668.24222-4.72384.72666-5.20829,1.21132-1.21131,3.87617-.96889,13.08143-.84788,3.1491,0,5.69274,0,7.63092-.121a20.3072,20.3072,0,0,1,14.17153,4.72384c7.87293,6.783,10.41657,23.13477,3.02808,32.94549-1.69576,2.30162-1.69576,3.27051.242,5.57173,3.63394,4.11838,5.3297,9.32667,5.20829,15.38284C384.70213,268.20513,384.70213,270.50634,384.70213,273.2924Zm-21.56-32.098a5.6901,5.6901,0,0,0,3.39152-2.54364,15.17384,15.17384,0,0,0,1.81677-7.38849l-.72687-3.63354a6.72427,6.72427,0,0,0-6.29819-5.08728c-3.1495-.24242-4.60283.72647-5.08728,3.75455C355.39018,232.23115,354.66331,243.98045,363.14211,241.19439Zm5.20829,19.98528c-1.33233-3.75456-6.05617-6.54062-9.44769-4.96587-3.27011,1.69576-2.78566,3.27051-2.78566,11.50688,0,8.96284-.60586,10.78,3.63354,11.022,3.755.12141,6.29859-1.0899,7.75193-3.75455A16.1844,16.1844,0,0,0,368.3504,261.17967Z"/><path d="M436.11432,290.613c-.24242,2.90707-3.1495,2.66465-5.69313,2.66465H404.13732c-1.69576,0-3.75455,0-4.84485-.96889-1.08991-.9689-.9689-2.54364-.9689-7.02546V255.36592l-4.84485-2.78606a1.79966,1.79966,0,0,1-.96929-1.69576,1.93215,1.93215,0,0,1,.96929-1.69536l4.84485-2.78606V214.78951c0-6.05616.121-6.29859,6.05617-6.29859H430.5426c2.78566,0,4.36041.36344,4.96586.84788,1.0903,1.0903.96889,7.14647.72687,9.93214-.24242,2.90707-2.78606,2.66465-6.29859,2.66465H417.94542c-3.997.12141-5.08688,1.33232-5.32931,5.08727-.121,4.11839-.121,8.11536.121,11.99133a5.50352,5.50352,0,0,0,1.0903,3.51253c1.45334,1.33232,4.118,1.21131,7.87294,1.21131a38.00256,38.00256,0,0,1,4.23939.121c2.90708,0,3.63355.84788,3.755,3.755a53.49707,53.49707,0,0,1-.12141,7.63092c0,1.69576-.96889,2.54364-2.66465,2.66465-1.81677.121-4.60284.121-8.11536.121-4.60244,0-5.81375.60586-6.05617,5.81415a87.80041,87.80041,0,0,0-.121,9.93213c.24243,3.876,1.33233,5.08727,5.32931,5.20829h11.87031c3.63354.121,6.05617-.24243,6.4196,2.54363A45.33221,45.33221,0,0,1,436.11432,290.613Z"/><path d="M492.30934,290.734a1.95567,1.95567,0,0,1-1.81677,2.42263,64.49511,64.49511,0,0,1-10.90142.121c-2.66445-.36344-3.02788-3.1491-3.75435-6.54062-.36344-1.81677-1.21132-5.08727-2.42263-9.81112l-2.30122-9.81112c-.48444-2.30121-1.0903-5.45031-4.60283-4.96586s-3.27011,3.75455-3.39152,7.5095v17.0786c0,3.63355.48445,6.41961-2.90667,6.54062-2.78606.121-5.69313.121-8.59981,0-3.2705-.121-2.78606-3.02809-2.78606-7.02506V255.48693l-4.84485-2.66465a2.13471,2.13471,0,0,1-.96889-1.81677,1.93243,1.93243,0,0,1,.96889-1.69576l4.84485-2.78606V214.6681c0-3.02808.24243-4.84485.84788-5.45031,1.0903-1.0903,4.60283-.84788,11.62789-.84788h6.41961a34.10114,34.10114,0,0,1,10.41637,1.45334,15.0984,15.0984,0,0,1,11.6279,14.05052c.121,3.2701.121,10.41657,0,21.56,0,2.78566-1.21132,5.69273-3.51253,8.59981-1.69576,2.05919-2.0592,4.60283-1.33233,7.63091,1.0899,3.876,3.27011,12.11234,6.54061,24.95154A22.64531,22.64531,0,0,1,492.30934,290.734ZM470.5071,223.26791a15.74554,15.74554,0,0,1-1.81677-.363c-6.783-.84788-5.45032,2.42222-5.45032,12.47577,0,5.3293.121,8.72081.121,8.96284a3.67424,3.67424,0,0,0,3.02808,3.876,7.84257,7.84257,0,0,0,9.68971-6.05617c.12141-.72647.24242-1.21131.24242-1.45333v-10.901C476.07882,225.933,474.50447,224.2372,470.5071,223.26791Z"/></svg>