<svg xmlns="http://www.w3.org/2000/svg" viewBox="0 0 500 500"><defs><style>.a{fill:#fff;}</style></defs><title>Big Timber Logo Mark - Filled</title><path d="M497.2613,322.684l-15.55663-68.90569a2.07833,2.07833,0,0,1,.00066-.72613l15.54754-74.55912a4.36658,4.36658,0,0,0-4.29949-5.12726H448.70884V152.78491a28.84787,28.84787,0,0,0-14.384-24.91369L264.21134,29.6558a28.84671,28.84671,0,0,0-28.76824,0L65.32961,127.87122a28.84761,28.84761,0,0,0-14.38423,24.91369v20.58092H6.70772a4.36654,4.36654,0,0,0-4.299,5.13081l15.54354,74.09664a2.09963,2.09963,0,0,1,.00111.727L2.39248,322.68758A4.3664,4.3664,0,0,0,6.694,327.80374H50.94538v21.41157a28.56009,28.56009,0,0,0,.19208,3.30673,28.86193,28.86193,0,0,0,14.19215,21.607L235.4431,472.34443a28.84817,28.84817,0,0,0,28.76824,0L434.32483,374.129a28.86233,28.86233,0,0,0,14.18148-21.51851,28.56069,28.56069,0,0,0,.20253-3.39519V327.80374h44.25164a4.36635,4.36635,0,0,0,4.30082-5.11971Z"/><rect class="a" x="23.56231" y="306.18236" width="452.87591" height="6.6298"/><rect class="a" x="23.01445" y="188.46503" width="452.87591" height="6.6298"/><polygon class="a" points="423.804 350.668 250.547 450.697 77.292 350.668 77.292 319.459 69.005 319.459 69.005 355.453 250.547 460.266 432.092 355.453 432.092 319.459 423.804 319.459 423.804 350.668"/><polygon class="a" points="77.292 150.61 250.547 50.58 423.804 150.61 423.804 181.586 432.092 181.586 432.092 145.825 250.547 41.011 69.005 145.825 69.005 181.586 77.292 181.586 77.292 150.61"/><path class="a" d="M273.37834,151.969l-21.038-21.038-.00822-15.00827,14.7137,14.71327a1.82352,1.82352,0,0,0,2.54276-.00044,1.80085,1.80085,0,0,0,0-2.54341l-17.25927-17.25927-.00844-15.38761L263.256,106.38055a1.82257,1.82257,0,0,0,2.54233-.00043,1.799,1.799,0,0,0,.00065-2.54254L251.86318,89.90117a1.92532,1.92532,0,0,0-2.63013,0l-13.93511,13.93511a1.80058,1.80058,0,0,0-.00021,2.54384,1.82253,1.82253,0,0,0,2.543,0l10.88345-10.88388.00844,15.37118L231.5077,128.09208a1.80036,1.80036,0,0,0-.00043,2.54255,1.83,1.83,0,0,0,2.543.00086l14.68515-14.68515.00843,14.99226L227.71768,151.969a1.80033,1.80033,0,0,0,0,2.543,1.82364,1.82364,0,0,0,2.54319,0l18.48534-18.48642.02336,33.53665a1.79812,1.79812,0,1,0,3.59624-.0013l-.02293-33.541,18.4927,18.49205a1.83032,1.83032,0,0,0,2.54146.00087,1.7993,1.7993,0,0,0,.0013-2.54385Z"/><path class="a" d="M200.774,147.39555l-.00448-8.11964,8.15466,8.15466a1.23521,1.23521,0,0,0,1.72122-.00042,1.21878,1.21878,0,0,0,0-1.72165l-9.8778-9.8776-.00449-8.33789,5.9805,5.98071a1.23413,1.23413,0,0,0,1.721-.00042,1.218,1.218,0,0,0,.00021-1.72123l-8.01948-8.02012a1.1528,1.1528,0,0,0-.8525-.35065,1.204,1.204,0,0,0-.91827.3515l-8.01842,8.01842a1.21854,1.21854,0,0,0-.00021,1.72208,1.23359,1.23359,0,0,0,1.72122,0l5.95124-5.95125.0047,8.3285-9.85773,9.85752a1.21877,1.21877,0,0,0-.00043,1.72165,1.2791,1.2791,0,0,0,1.72122.00043l8.13886-8.13887.00449,8.11111L186.294,159.448a1.21879,1.21879,0,0,0,.00043,1.72165,1.23439,1.23439,0,0,0,1.72122-.00043l10.32563-10.32605.013,18.85742a1.21725,1.21725,0,0,0,2.43449-.00128l-.013-18.85913,10.32947,10.32947a1.23415,1.23415,0,0,0,1.72037,0,1.218,1.218,0,0,0,.00064-1.72208Z"/><path class="a" d="M314.80182,159.44752l-12.0524-12.052-.00427-8.11964,8.15467,8.15466a1.234,1.234,0,0,0,1.72122-.00042,1.21827,1.21827,0,0,0,0-1.72165l-9.8776-9.8776-.00512-8.33789,5.98071,5.98071a1.23491,1.23491,0,0,0,1.72165-.00085,1.21774,1.21774,0,0,0-.00043-1.7208L302.421,123.732a1.17039,1.17039,0,0,0-.85207-.35065,1.23332,1.23332,0,0,0-.9187.3515l-8.018,8.01842a1.21826,1.21826,0,0,0-.00042,1.72208,1.23278,1.23278,0,0,0,1.72122,0l5.95081-5.95125.00513,8.3285-9.85838,9.85795a1.2188,1.2188,0,0,0,0,1.72122,1.27912,1.27912,0,0,0,1.72123.00043l8.13843-8.13887.00513,8.11111L288.2698,159.448a1.21929,1.21929,0,0,0,0,1.72165,1.23573,1.23573,0,0,0,1.72165-.00043l10.32562-10.32605.01282,18.85742a1.21926,1.21926,0,0,0,1.21724,1.21639,1.21761,1.21761,0,0,0,1.21724-1.21767l-.01281-18.85913,10.329,10.32947a1.28109,1.28109,0,0,0,1.71994.00043,1.21774,1.21774,0,0,0,.00128-1.72251Z"/><path class="a" d="M143.43871,330.17856h-3.91715l-6.989,15.58023-.07258.16275h3.9771l1.1302-2.65937h7.80319l1.1302,2.65937h3.99965l-7.03094-15.67491Zm-4.46534,9.7949,2.50609-5.88317,2.48581,5.88317Z"/><polygon class="a" points="169.806 330.515 169.826 330.485 169.826 330.179 165.859 330.179 162.309 335.602 158.737 330.179 154.77 330.179 154.77 330.485 159.953 338.006 154.724 345.63 154.703 345.66 154.703 345.922 158.714 345.922 162.309 340.562 165.903 345.922 169.914 345.922 169.914 345.659 164.621 338.006 169.806 330.515"/><polygon class="a" points="179.597 339.606 187.242 339.606 187.242 336.339 179.597 336.339 179.597 333.578 187.708 333.578 187.708 330.179 175.976 330.179 175.976 345.922 188.018 345.922 188.018 342.5 179.597 342.5 179.597 339.606"/><polygon class="a" points="202.677 333.489 207.397 333.489 207.397 345.922 211.062 345.922 211.062 333.489 215.783 333.489 215.783 330.179 202.677 330.179 202.677 333.489"/><polygon class="a" points="232.48 336.406 225.775 336.406 225.775 330.201 222.087 330.201 222.087 345.944 225.775 345.944 225.775 339.805 232.48 339.805 232.48 345.944 236.124 345.944 236.124 330.201 232.48 330.201 232.48 336.406"/><path class="a" d="M257.10771,335.52389c0-2.57461-1.83212-5.34533-5.85476-5.34533H243.7802v15.743h3.68769V340.8246h2.33252l3.96674,5.09694h4.00551v-.42287l-4.17727-5.0478C256.651,339.29723,257.08787,337.31679,257.10771,335.52389Zm-5.81058,2.14454h-3.82924v-4.28952H251.253a2.16428,2.16428,0,0,1,2.21125,2.23334A2.04768,2.04768,0,0,1,251.29713,337.66843Z"/><path class="a" d="M271.77188,329.80167c-5.1587,0-8.492,3.23777-8.492,8.24815,0,5.01083,3.33334,8.2486,8.492,8.2486s8.492-3.23777,8.492-8.2486C280.26392,333.03944,276.93058,329.80167,271.77188,329.80167Zm0,13.14132a4.67084,4.67084,0,0,1-4.87063-4.89317,4.73246,4.73246,0,0,1,4.87063-4.91481,4.9041,4.9041,0,0,1,0,9.808Z"/><polygon class="a" points="302.861 335.582 301.627 340.208 298.117 330.256 298.09 330.179 295.665 330.179 292.279 340.207 290.981 335.55 289.053 330.254 289.025 330.179 284.9 330.179 290.77 345.899 293.767 345.899 296.902 337.446 300.144 345.899 303.141 345.899 308.798 330.333 308.854 330.179 304.729 330.179 302.861 335.582"/><rect class="a" x="314.84248" y="330.17856" width="3.66559" height="15.74298"/><polygon class="a" points="336.736 335.507 336.942 340.019 329.342 330.223 329.307 330.179 326.166 330.179 326.166 345.922 329.898 345.922 329.898 340.972 329.774 336.227 337.305 345.922 340.446 345.922 340.446 330.179 336.736 330.179 336.736 335.507"/><path class="a" d="M355.08286,336.49405v3.11154h3.70121v2.30908a4.83433,4.83433,0,0,1-3.18683,1.02832c-3.51322,0-4.75972-2.62421-4.75972-4.87108,0-3.15166,1.73474-4.959,4.75972-4.959a5.31582,5.31582,0,0,1,3.55469,1.34163l.0816.078,2.31-2.31-.0798-.0816a7.70493,7.70493,0,0,0-5.86648-2.4281,8.22344,8.22344,0,0,0-6.35472,2.52322,8.69257,8.69257,0,0,0-2.02642,5.83583c0,4.00912,2.19593,8.29278,8.35905,8.29278,2.897,0,5.05366-.98594,6.41062-2.92986l.02074-.03021v-6.91057Z"/><path class="a" d="M283.42271,376.689a1.34688,1.34688,0,0,0-.99231-.64284,41.0931,41.0931,0,0,1-6.75694-1.74105,30.24816,30.24816,0,0,1-7.321-4.01837c-.19007-.12134-4.66338-2.97713-5.59045-3.37336a1.10137,1.10137,0,0,0-1.28262.304l-3.44208,4.07709a.54316.54316,0,0,0-.07133.09873.41519.41519,0,0,0-.03.03871l-.0635.097-.06394.03219-.22094,1.99461a1.1071,1.1071,0,0,0,.2577.83725c-.95447,1.10865-2.47305,2.93408-3.64585,4.62946a1.28052,1.28052,0,0,0-.08655.14831c-.28761.55019-1.39571,2.63788-2.67638,4.65446-1.28273-2.01984-2.39356-4.11275-2.69008-4.68012a1.15869,1.15869,0,0,0-.07459-.12483c-1.17171-1.69364-2.69007-3.51863-3.64454-4.62728a1.10889,1.10889,0,0,0,.2577-.83855l-.221-1.99331-.06176-.01-.095-.15788a.50086.50086,0,0,0-.06089-.08612l-3.454-4.09057a1.10187,1.10187,0,0,0-1.28067-.304c-.92815.3971-5.40147,3.25289-5.62263,3.396a30.14147,30.14147,0,0,1-7.30453,4.00228,41.11415,41.11415,0,0,1-6.72345,1.73278,1.3633,1.3633,0,0,0-1.01405.64893,1.50707,1.50707,0,0,0-.139,1.16171,18.97261,18.97261,0,0,0,7.41826,11.53275,2.84283,2.84283,0,0,0,1.3794.8229,1.34239,1.34239,0,0,0,1.47508-.692l3.92486-7.02378a28.79279,28.79279,0,0,1,2.159-3.60692l.07329-.1083a1.51705,1.51705,0,0,1,1.04471-.48539,1.3667,1.3667,0,0,1,.85095.36361l1.19934,1.74192.06741.08785c1.30807,1.7143,4.54138,5.93666,7.485,9.66427-1.0507,1.20477-2.24068,2.5596-3.36989,3.82439l-.06045.06481c-1.56794,1.75366-2.71248,2.98626-3.4025,3.66476-2.60157,2.57091-8.20985,10.09573-8.26269,10.16706l-3.0663,4.09839a2.52694,2.52694,0,0,0,.05307,3.29073,6.67721,6.67721,0,0,0,1.26261,1.23565c.37644.41623,1.03928.59455,2.31821.63109,1.30285.0374,2.02832.07655,2.23579.087a3.041,3.041,0,0,0,.471.03523,3.1299,3.1299,0,0,0,.56694-.05089,2.68758,2.68758,0,0,0,2.10313-1.83673l.66763-1.90763a15.42761,15.42761,0,0,1,2.33038-4.322c.59978-.68632,1.37962-1.60273,2.14793-2.50522l.1755-.20616c.83355-.98122,2.38518-2.80795,2.57938-2.97888.281-.2266.92054-.9512,3.314-3.7113l.14919-.1718c.86541-.99753,1.83858-2.11857,2.838-3.26115.99942,1.14258,1.97259,2.26384,2.8379,3.26115l.14918.1718c2.39345,2.7601,3.033,3.4847,3.30138,3.70086.20681.18137,1.75844,2.0081,2.59221,2.98975l.17528.20573c.76832.90249,1.54816,1.8189,2.14815,2.50566a15.41277,15.41277,0,0,1,2.32756,4.31412l.67023,1.91546a2.68779,2.68779,0,0,0,2.10313,1.8363,3.1419,3.1419,0,0,0,.57151.05132,2.558,2.558,0,0,0,.42254-.03088c.25139-.01522.97686-.05437,2.2795-.09177,1.27914-.03654,1.942-.21486,2.31842-.63109a6.67438,6.67438,0,0,0,1.26284-1.23609,2.51947,2.51947,0,0,0,.07154-3.26723l-3.08326-4.11884c-.05458-.07394-5.66286-7.59876-8.26529-10.17054-.69025-.6785-1.83652-1.91328-3.40751-3.67042l-.05849-.06393c-1.12431-1.25849-2.3143-2.6131-3.366-3.81874,2.9437-3.72761,6.177-7.95,7.48508-9.66427l1.26762-1.83108a1.35487,1.35487,0,0,1,.84138-.36186,1.48075,1.48075,0,0,1,1.05342.48495l.07372.10874a28.937,28.937,0,0,1,2.17446,3.63823l3.89768,6.97028a1.34885,1.34885,0,0,0,1.487.71373,2.84416,2.84416,0,0,0,1.37875-.8229,18.97272,18.97272,0,0,0,7.41826-11.53275A1.50536,1.50536,0,0,0,283.42271,376.689Zm-59.61966,6.434a19.11263,19.11263,0,0,1-2.19621-5.04047c.7881-.14918,2.11835-.421,3.53363-.80072,1.88175,2.5248,3.94161,5.71593,4.71666,6.93418l-1.04885,2.15119-.71307,1.27567-.02327-.01609m49.66007-10.345c1.41528.3797,2.74553.65154,3.53364.80072a19.11332,19.11332,0,0,1-2.19621,5.04047,17.58633,17.58633,0,0,1-4.25911,4.49723c-.01131.0074-.02218.01479-.03305.02305l-.70155-1.25392-1.06038-2.17337"/><path class="a" d="M72.64269,270.93087a17.13112,17.13112,0,0,1-4.33107,11.88263c-6.441,7.66249-11.43846,6.66321-32.53852,6.441a3.65736,3.65736,0,0,1-2.66518-.88833c-.77738-.88834-.77738-2.55441-.77738-6.21906V254.384l-4.44221-2.55441A1.67661,1.67661,0,0,1,27,250.27479a1.73475,1.73475,0,0,1,.88833-1.66571l4.44221-2.554V216.73681c0-2.665.22208-4.33107.66625-4.77524,1.11059-1.1106,3.55369-.88833,11.99375-.77738,2.88744,0,5.2194,0,6.99625-.111A18.61841,18.61841,0,0,1,64.98,215.40431c7.21851,6.219,9.55066,21.2112,2.77631,30.20619-1.55477,2.11025-1.55477,2.99858.22208,5.10846a19.99742,19.99742,0,0,1,4.77542,14.10381C72.64269,266.26659,72.64269,268.37647,72.64269,270.93087ZM52.8753,241.5017a5.21756,5.21756,0,0,0,3.10953-2.33215,13.91423,13.91423,0,0,0,1.66571-6.77416l-.66625-3.33143a6.16538,6.16538,0,0,0-5.7747-4.66429c-2.88744-.22226-4.22012.66607-4.66429,3.44238C45.76792,233.28372,45.10167,244.05611,52.8753,241.5017Zm4.77524,18.32357c-1.22155-3.44238-5.55262-5.99679-8.66214-4.553-2.9984,1.55476-2.55423,2.99857-2.55423,10.55012,0,8.21762-.5553,9.88369,3.33161,10.10559,3.44274.11132,5.7747-.99928,7.10738-3.44237A14.83742,14.83742,0,0,0,57.65054,259.82527Z"/><path class="a" d="M102.67775,248.72a1.77293,1.77293,0,0,1,.88833,1.55476,1.65059,1.65059,0,0,1-.88851,1.55477l-4.442,2.55441v29.20691c0,5.55262-.22208,5.66357-5.66375,5.66357-2.10988,0-3.66464,0-4.77524-.111-2.99839-.22227-2.66517-2.99858-2.66517-6.1081V254.384l-4.44221-2.55441a1.57241,1.57241,0,0,1-.99946-1.55477,1.67542,1.67542,0,0,1,.99946-1.55476l4.44221-2.554V216.84812c0-2.66536.22208-4.33107.66624-4.77523,1.1106-1.1106,7.77364-.8887,9.8837-.77739,2.99839.33285,2.55422,2.77631,2.55422,6.55191V246.166l4.442,2.554Z"/><path class="a" d="M154.03423,229.17491a28.29672,28.29672,0,0,0-.111,3.44274c0,3.22048.66625,5.99679-2.66536,6.21869-2.55423.11131-5.10846.11131-7.77363,0-2.9984-.2219-2.221,0-2.55423-7.77345-.111-3.665-2.77631-7.32965-6.66322-6.77453-3.88672.55548-5.33053,4.7756-5.33053,10.10595V265.4892a18.97582,18.97582,0,0,0,.88851,6.33c1.66571,5.44167,7.66268,5.66357,10.32786.77738a2.65122,2.65122,0,0,1,.33321-.77738,31.20559,31.20559,0,0,0-.11113-12.43811,2.87892,2.87892,0,0,0-2.77631-2.33214q-2.66526-.33285-2.66518-3.33143c0-3.8869,0-6.21905.111-6.88511a2.59564,2.59564,0,0,1,2.7763-2.66536c.99965-.11132,3.44275-.11132,7.32965-.11132,2.9984,0,4.99732,0,5.99679.11132a2.81615,2.81615,0,0,1,1.99893.66643c.88833.88833.88833,2.10988.88833,4.99714,0,23.9875,2.11006,28.76274-6.77417,35.98108-8.77309,7.21869-23.87637,5.2194-29.65108-8.10667a16.6195,16.6195,0,0,1-.77738-5.99678V254.60587l-4.442-2.4431a1.77228,1.77228,0,0,1-.88851-1.55476,1.65056,1.65056,0,0,1,.88851-1.55476l4.442-2.554c0-8.55119,0-14.437-.11113-17.54655,0-8.32893,6.66322-17.87941,16.769-17.76846h3.998a16.17649,16.17649,0,0,1,12.88209,6.77417A16.62808,16.62808,0,0,1,154.03423,229.17491Z"/><path class="a" d="M213.92206,216.73681c0,2.22119,0,3.88691-.11095,4.77524a3.43192,3.43192,0,0,1-.55529,2.11024c-.88852.77738-2.4431.77738-4.44221.77738-2.221,0-4.55315-.11131-5.88565,1.22155-1.33268,1.22155-1.22173,3.10952-1.22173,7.4406V246.166l4.88637,2.77631a1.91351,1.91351,0,0,1,.88851,1.55476,1.82674,1.82674,0,0,1-.88851,1.66571l-4.88637,2.77631v27.5412c0,3.99786.33321,6.5519-2.332,6.77417q-4.33118.16643-8.32912,0c-2.88726-.111-2.44309-2.77631-2.44309-6.10774V255.05l-5.10845-2.88726a1.75329,1.75329,0,0,1-.77739-1.66571,1.80124,1.80124,0,0,1,.77739-1.55476l5.10845-2.88726V231.95122c0-3.776,0-5.2194-.99946-6.33-1.1106-1.22155-3.33161-1.22155-5.55262-1.22155a14.28133,14.28133,0,0,1-2.55423-.11131c-2.221-.111-2.99839-.66607-3.10953-2.88726-.111-2.33215-.111-4.88619,0-7.4406a2.7101,2.7101,0,0,1,.66643-1.88761c.88834-.77739,2.221-.55549,4.77524-.55549h26.65269C213.7,211.5174,213.92206,211.5174,213.92206,216.73681Z"/><path class="a" d="M243.73486,248.72a1.77293,1.77293,0,0,1,.88833,1.55476,1.65059,1.65059,0,0,1-.88851,1.55477l-4.442,2.55441v29.20691c0,5.55262-.22209,5.66357-5.66376,5.66357-2.10988,0-3.66464,0-4.77524-.111-2.99839-.22227-2.66517-2.99858-2.66517-6.1081V254.384l-4.44221-2.55441a1.57241,1.57241,0,0,1-.99946-1.55477,1.67542,1.67542,0,0,1,.99946-1.55476l4.44221-2.554V216.84812c0-2.66536.22208-4.33107.66625-4.77523,1.11059-1.1106,7.77363-.8887,9.88369-.77739,2.99839.33285,2.55423,2.77631,2.55423,6.55191V246.166l4.442,2.554Z"/><path class="a" d="M320.13517,250.608a1.65042,1.65042,0,0,1-.88833,1.55476l-4.4422,2.55441v28.20727c0,3.10952.22208,5.99678-2.33215,6.33a38.6193,38.6193,0,0,1-8.77309,0c-2.221-.22227-1.99893-2.77631-1.99893-5.55262v-14.437a17.21758,17.21758,0,0,0-1.1106-6.44095.60891.60891,0,0,0-.66625-.44417,1.0076,1.0076,0,0,0-.77738.33321,8.33193,8.33193,0,0,0-1.22155,3.33143l-2.33214,11.54941c-.77738,3.776-1.44381,6.55226-1.888,8.55119a6.04173,6.04173,0,0,1-1.22155,2.55441c-.88851.77738-4.33107.88833-7.44059.66607-2.221-.111-2.88726-.66607-3.33161-2.77631-.66625-2.88726-2.332-9.8837-2.77631-11.43846-1.11042-5.10845-2.10988-9.10631-2.77631-11.99357a28.19413,28.19413,0,0,0-1.11042-2.77631.93683.93683,0,0,0-1.66589,0,9.82728,9.82728,0,0,0-.5553,3.88691v18.87905c0,3.10916.22226,5.77452-2.55423,6.21869a50.7186,50.7186,0,0,1-8.21779,0c-2.66536-.33322-2.33215-2.665-2.33215-6.33V254.71718l-4.442-2.55441a1.65057,1.65057,0,0,1-.88852-1.55476,1.77229,1.77229,0,0,1,.88852-1.55476l4.442-2.554V217.84741c0-3.22048-.33321-5.99679,2.4431-6.10774H275.714a2.48541,2.48541,0,0,1,2.4431,2.22083l1.55476,7.66286,5.7747,29.20691c.11113.55512.44435,1.55477.88852,2.88726s1.99892,1.55477,2.77631-.22226a1.71873,1.71873,0,0,0,.22208-.88833l2.66536-14.43667c1.11041-5.88583,1.99893-10.77239,2.77631-14.32608.22208-1.22155.44416-2.77631.88833-4.77524.88851-4.99714.5553-7.32928,3.88691-7.32928q7.496-.167,12.66,0c2.99839.111,2.55423,2.77631,2.55423,5.99679V246.4992l4.4422,2.554A1.77212,1.77212,0,0,1,320.13517,250.608Z"/><path class="a" d="M373.29757,270.93087a17.13108,17.13108,0,0,1-4.33108,11.88263c-6.441,7.66249-11.43845,6.66321-32.53833,6.441a3.65783,3.65783,0,0,1-2.66536-.88833c-.77738-.88834-.77738-2.55441-.77738-6.21906V254.384l-4.44221-2.55441a1.67661,1.67661,0,0,1-.88833-1.55477,1.73475,1.73475,0,0,1,.88833-1.66571l4.44221-2.554V216.73681c0-2.665.22208-4.33107.66624-4.77524,1.1106-1.1106,3.55388-.88833,11.99376-.77738,2.88726,0,5.2194,0,6.99643-.111a18.6187,18.6187,0,0,1,12.99322,4.33107c7.21833,6.219,9.55048,21.2112,2.77631,30.20619-1.55476,2.11025-1.55476,2.99858.2219,5.10846a19.99483,19.99483,0,0,1,4.77524,14.10381C373.29757,266.26659,373.29757,268.37647,373.29757,270.93087ZM353.53018,241.5017a5.217,5.217,0,0,0,3.10953-2.33215,13.91225,13.91225,0,0,0,1.66571-6.77416L357.639,229.064a6.16517,6.16517,0,0,0-5.77452-4.66429c-2.88763-.22226-4.22012.66607-4.66429,3.44238C346.4228,233.28372,345.75637,244.05611,353.53018,241.5017Zm4.77524,18.32357c-1.22155-3.44238-5.55262-5.99679-8.66214-4.553-2.99821,1.55476-2.55405,2.99857-2.55405,10.55012,0,8.21762-.55548,9.88369,3.33143,10.10559,3.44274.11132,5.77488-.99928,7.10738-3.44237A14.83872,14.83872,0,0,0,358.30542,259.82527Z"/><path class="a" d="M420.435,286.81135c-.22227,2.66536-2.88763,2.4431-5.21977,2.4431H391.11679c-1.55476,0-3.44237,0-4.442-.88833-.99928-.88834-.88833-2.33215-.88833-6.44132V254.49492l-4.442-2.55441a1.65,1.65,0,0,1-.88869-1.55477,1.77149,1.77149,0,0,1,.88869-1.55439l4.442-2.55441V217.29229c0-5.55262.11095-5.77489,5.55262-5.77489h23.9875c2.55405,0,3.99786.33322,4.553.77739.99964.99964.88833,6.55226.66643,9.10631-.22227,2.66536-2.55441,2.44309-5.77489,2.44309H403.77679c-3.66464.11132-4.66392,1.22155-4.88618,4.66429-.111,3.776-.111,7.4406.111,10.99429a5.04592,5.04592,0,0,0,.99964,3.22047c1.3325,1.22155,3.77559,1.1106,7.21834,1.1106a34.84245,34.84245,0,0,1,3.8869.111c2.66536,0,3.33143.77738,3.44274,3.44274a49.04934,49.04934,0,0,1-.11131,6.99644c0,1.55476-.88833,2.33214-2.4431,2.44309-1.66571.111-4.22012.111-7.44059.111-4.21976,0-5.33036.55548-5.55262,5.33072a80.50134,80.50134,0,0,0-.111,9.10631c.22226,3.55369,1.22154,4.66429,4.88618,4.77524h10.88334c3.33143.111,5.55262-.22227,5.88584,2.33214A41.56236,41.56236,0,0,1,420.435,286.81135Z"/><path class="a" d="M471.95763,286.9223a1.79307,1.79307,0,0,1-1.66571,2.2212,59.13323,59.13323,0,0,1-9.995.111c-2.44291-.33322-2.77613-2.88726-3.44219-5.99679-.33322-1.66571-1.1106-4.66429-2.2212-8.99536l-2.10988-8.99536c-.44416-2.10988-.99964-4.99714-4.22012-4.553s-2.99821,3.44237-3.10952,6.88511v15.65858c0,3.33143.44416,5.88584-2.665,5.99679-2.55441.111-5.21977.111-7.88476,0-2.99858-.111-2.55441-2.77631-2.55441-6.441V254.60587l-4.442-2.4431a1.95721,1.95721,0,0,1-.88834-1.66571,1.77174,1.77174,0,0,1,.88834-1.55476l4.442-2.55441V217.181c0-2.77631.22226-4.442.77738-4.99713.99965-.99965,4.22012-.77739,10.66107-.77739h5.88584a31.2657,31.2657,0,0,1,9.55029,1.3325,13.843,13.843,0,0,1,10.66108,12.88227c.111,2.99821.111,9.55048,0,19.76738a12.93541,12.93541,0,0,1-3.22048,7.88477c-1.55476,1.888-1.888,4.22012-1.22155,6.99643.99929,3.55369,2.99822,11.10524,5.99679,22.87691A20.76249,20.76249,0,0,1,471.95763,286.9223Zm-19.98947-61.85656a14.43663,14.43663,0,0,1-1.66571-.33285c-6.21905-.77738-4.99714,2.22083-4.99714,11.43845,0,4.88619.111,7.99572.111,8.21762a3.36874,3.36874,0,0,0,2.77631,3.55369,7.19049,7.19049,0,0,0,8.88405-5.55262c.11131-.66607.22226-1.1106.22226-1.3325v-9.99464C457.07662,227.5092,455.63317,225.95443,451.96816,225.06574Z"/></svg>