<svg xmlns="http://www.w3.org/2000/svg" viewBox="0 0 500 500"><title>Big Timber Logo Mark - Stamp</title><path d="M228.072,387.62677l.02325.01611.71308-1.27569,1.04883-2.15119c-.775-1.21826-2.8349-4.40936-4.71662-6.9342-1.41528.3797-2.74554.65155-3.53369.80072A19.11218,19.11218,0,0,0,223.803,383.123Z"/><path d="M251.25293,333.37891h-3.785v4.28949h3.82922a2.04755,2.04755,0,0,0,2.167-2.05616A2.16413,2.16413,0,0,0,251.25293,333.37891Z"/><path d="M274.77734,387.64331c.01075-.0083.02173-.01569.033-.02307a17.5845,17.5845,0,0,0,4.25916-4.49725,19.11306,19.11306,0,0,0,2.19616-5.04047c-.78808-.14917-2.1184-.421-3.53369-.80072l-4.71655,6.9342,1.0603,2.1734Z"/><polygon points="141.479 334.09 138.973 339.973 143.965 339.973 141.479 334.09"/><path d="M276.64258,338.0498a4.68141,4.68141,0,0,0-4.87073-4.91479,4.73239,4.73239,0,0,0-4.8706,4.91479,4.87072,4.87072,0,1,0,9.74133,0Z"/><path d="M497.26123,322.684l-15.55664-68.9057a2.08169,2.08169,0,0,1,.00073-.72613l15.54761-74.55909a4.36663,4.36663,0,0,0-4.29956-5.12726H448.70886V152.78491a28.84777,28.84777,0,0,0-14.384-24.91369l-170.1134-98.2154a28.84665,28.84665,0,0,0-28.76831,0L65.32959,127.87122a28.84769,28.84769,0,0,0-14.38422,24.91369v20.58093H6.7077a4.36652,4.36652,0,0,0-4.299,5.1308l15.54352,74.09662a2.09854,2.09854,0,0,1,.0011.727L2.39246,322.68756A4.36643,4.36643,0,0,0,6.694,327.80371h44.2514v21.41156a28.56112,28.56112,0,0,0,.19208,3.30676A28.8618,28.8618,0,0,0,65.32959,374.129l170.11353,98.21545a28.8485,28.8485,0,0,0,28.76831,0L434.32483,374.129a28.86239,28.86239,0,0,0,14.18152-21.5185,28.56,28.56,0,0,0,.20251-3.3952V327.80371h44.25159a4.36623,4.36623,0,0,0,4.30078-5.11969ZM72.64269,270.93087a17.13112,17.13112,0,0,1-4.33107,11.88263c-6.441,7.66249-11.43846,6.66321-32.53852,6.441a3.65736,3.65736,0,0,1-2.66518-.88833c-.77738-.88834-.77738-2.55441-.77738-6.21906V254.384l-4.44221-2.55441A1.67661,1.67661,0,0,1,27,250.27479a1.73475,1.73475,0,0,1,.88833-1.66571l4.44221-2.554V216.73681c0-2.665.22208-4.33107.66625-4.77524,1.11059-1.1106,3.55369-.88833,11.99375-.77738,2.88744,0,5.2194,0,6.99625-.111A18.61841,18.61841,0,0,1,64.98,215.40431c7.21851,6.219,9.55066,21.2112,2.77631,30.20619-1.55477,2.11025-1.55477,2.99858.22208,5.10846a19.99742,19.99742,0,0,1,4.77542,14.10381C72.64269,266.26659,72.64269,268.37647,72.64269,270.93087ZM52.8753,241.5017a5.21756,5.21756,0,0,0,3.10953-2.33215,13.91423,13.91423,0,0,0,1.66571-6.77416l-.66625-3.33143a6.16538,6.16538,0,0,0-5.7747-4.66429c-2.88744-.22226-4.22012.66607-4.66429,3.44238C45.76792,233.28372,45.10167,244.05611,52.8753,241.5017Zm4.77524,18.32357c-1.22155-3.44238-5.55262-5.99679-8.66214-4.553-2.9984,1.55476-2.55423,2.99857-2.55423,10.55012,0,8.21762-.5553,9.88369,3.33161,10.10559,3.44274.11132,5.7747-.99928,7.10738-3.44237A14.83742,14.83742,0,0,0,57.65054,259.82527ZM102.67775,248.72a1.77293,1.77293,0,0,1,.88833,1.55476,1.65059,1.65059,0,0,1-.88851,1.55477l-4.442,2.55441v29.20691c0,5.55262-.22208,5.66357-5.66375,5.66357-2.10988,0-3.66464,0-4.77524-.111-2.99839-.22227-2.66517-2.99858-2.66517-6.1081V254.384l-4.44221-2.55441a1.57241,1.57241,0,0,1-.99946-1.55477,1.67542,1.67542,0,0,1,.99946-1.55476l4.44221-2.554V216.84812c0-2.66536.22208-4.33107.66624-4.77523,1.1106-1.1106,7.77364-.8887,9.8837-.77739,2.99839.33285,2.55422,2.77631,2.55422,6.55191V246.166l4.442,2.554Zm51.35648-19.54512a28.29672,28.29672,0,0,0-.111,3.44274c0,3.22048.66625,5.99679-2.66536,6.21869-2.55423.11131-5.10846.11131-7.77363,0-2.9984-.2219-2.221,0-2.55423-7.77345-.111-3.665-2.77631-7.32965-6.66322-6.77453-3.88672.55548-5.33053,4.7756-5.33053,10.10595V265.4892a18.97582,18.97582,0,0,0,.88851,6.33c1.66571,5.44167,7.66268,5.66357,10.32786.77738a2.65122,2.65122,0,0,1,.33321-.77738,31.20559,31.20559,0,0,0-.11113-12.43811,2.87892,2.87892,0,0,0-2.77631-2.33214q-2.66526-.33285-2.66518-3.33143c0-3.8869,0-6.21905.111-6.88511a2.59564,2.59564,0,0,1,2.7763-2.66536c.99965-.11132,3.44275-.11132,7.32965-.11132,2.9984,0,4.99732,0,5.99679.11132a2.81615,2.81615,0,0,1,1.99893.66643c.88833.88833.88833,2.10988.88833,4.99714,0,23.9875,2.11006,28.76274-6.77417,35.98108-8.77309,7.21869-23.87637,5.2194-29.65108-8.10667a16.6195,16.6195,0,0,1-.77738-5.99678V254.60587l-4.442-2.4431a1.77228,1.77228,0,0,1-.88851-1.55476,1.65056,1.65056,0,0,1,.88851-1.55476l4.442-2.554c0-8.55119,0-14.437-.11113-17.54655,0-8.32893,6.66322-17.87941,16.769-17.76846h3.998a16.17649,16.17649,0,0,1,12.88209,6.77417A16.62808,16.62808,0,0,1,154.03423,229.17491Zm59.88783-12.4381c0,2.22119,0,3.88691-.11095,4.77524a3.43192,3.43192,0,0,1-.55529,2.11024c-.88852.77738-2.4431.77738-4.44221.77738-2.221,0-4.55315-.11131-5.88565,1.22155-1.33268,1.22155-1.22173,3.10952-1.22173,7.4406V246.166l4.88637,2.77631a1.91351,1.91351,0,0,1,.88851,1.55476,1.82674,1.82674,0,0,1-.88851,1.66571l-4.88637,2.77631v27.5412c0,3.99786.33321,6.5519-2.332,6.77417q-4.33118.16643-8.32912,0c-2.88726-.111-2.44309-2.77631-2.44309-6.10774V255.05l-5.10845-2.88726a1.75329,1.75329,0,0,1-.77739-1.66571,1.80124,1.80124,0,0,1,.77739-1.55476l5.10845-2.88726V231.95122c0-3.776,0-5.2194-.99946-6.33-1.1106-1.22155-3.33161-1.22155-5.55262-1.22155a14.28133,14.28133,0,0,1-2.55423-.11131c-2.221-.111-2.99839-.66607-3.10953-2.88726-.111-2.33215-.111-4.88619,0-7.4406a2.7101,2.7101,0,0,1,.66643-1.88761c.88834-.77739,2.221-.55549,4.77524-.55549h26.65269C213.7,211.5174,213.92206,211.5174,213.92206,216.73681ZM243.73486,248.72a1.77293,1.77293,0,0,1,.88833,1.55476,1.65059,1.65059,0,0,1-.88851,1.55477l-4.442,2.55441v29.20691c0,5.55262-.22209,5.66357-5.66376,5.66357-2.10988,0-3.66464,0-4.77524-.111-2.99839-.22227-2.66517-2.99858-2.66517-6.1081V254.384l-4.44221-2.55441a1.57241,1.57241,0,0,1-.99946-1.55477,1.67542,1.67542,0,0,1,.99946-1.55476l4.44221-2.554V216.84812c0-2.66536.22208-4.33107.66625-4.77523,1.11059-1.1106,7.77363-.8887,9.88369-.77739,2.99839.33285,2.55423,2.77631,2.55423,6.55191V246.166l4.442,2.554Zm76.40031,1.888a1.65042,1.65042,0,0,1-.88833,1.55476l-4.4422,2.55441v28.20727c0,3.10952.22208,5.99678-2.33215,6.33a38.6193,38.6193,0,0,1-8.77309,0c-2.221-.22227-1.99893-2.77631-1.99893-5.55262v-14.437a17.21758,17.21758,0,0,0-1.1106-6.44095.60891.60891,0,0,0-.66625-.44417,1.0076,1.0076,0,0,0-.77738.33321,8.33193,8.33193,0,0,0-1.22155,3.33143l-2.33214,11.54941c-.77738,3.776-1.44381,6.55226-1.888,8.55119a6.04173,6.04173,0,0,1-1.22155,2.55441c-.88851.77738-4.33107.88833-7.44059.66607-2.221-.111-2.88726-.66607-3.33161-2.77631-.66625-2.88726-2.332-9.8837-2.77631-11.43846-1.11042-5.10845-2.10988-9.10631-2.77631-11.99357a28.19413,28.19413,0,0,0-1.11042-2.77631.93683.93683,0,0,0-1.66589,0,9.82728,9.82728,0,0,0-.5553,3.88691v18.87905c0,3.10916.22226,5.77452-2.55423,6.21869a50.7186,50.7186,0,0,1-8.21779,0c-2.66536-.33322-2.33215-2.665-2.33215-6.33V254.71718l-4.442-2.55441a1.65057,1.65057,0,0,1-.88852-1.55476,1.77229,1.77229,0,0,1,.88852-1.55476l4.442-2.554V217.84741c0-3.22048-.33321-5.99679,2.4431-6.10774H275.714a2.48541,2.48541,0,0,1,2.4431,2.22083l1.55476,7.66286,5.7747,29.20691c.11113.55512.44435,1.55477.88852,2.88726s1.99892,1.55477,2.77631-.22226a1.71873,1.71873,0,0,0,.22208-.88833l2.66536-14.43667c1.11041-5.88583,1.99893-10.77239,2.77631-14.32608.22208-1.22155.44416-2.77631.88833-4.77524.88851-4.99714.5553-7.32928,3.88691-7.32928q7.496-.167,12.66,0c2.99839.111,2.55423,2.77631,2.55423,5.99679V246.4992l4.4422,2.554A1.77212,1.77212,0,0,1,320.13517,250.608Zm53.1624,20.32286a17.13108,17.13108,0,0,1-4.33108,11.88263c-6.441,7.66249-11.43845,6.66321-32.53833,6.441a3.65783,3.65783,0,0,1-2.66536-.88833c-.77738-.88834-.77738-2.55441-.77738-6.21906V254.384l-4.44221-2.55441a1.67661,1.67661,0,0,1-.88833-1.55477,1.73475,1.73475,0,0,1,.88833-1.66571l4.44221-2.554V216.73681c0-2.665.22208-4.33107.66624-4.77524,1.1106-1.1106,3.55388-.88833,11.99376-.77738,2.88726,0,5.2194,0,6.99643-.111a18.6187,18.6187,0,0,1,12.99322,4.33107c7.21833,6.219,9.55048,21.2112,2.77631,30.20619-1.55476,2.11025-1.55476,2.99858.2219,5.10846a19.99483,19.99483,0,0,1,4.77524,14.10381C373.29757,266.26659,373.29757,268.37647,373.29757,270.93087ZM353.53018,241.5017a5.217,5.217,0,0,0,3.10953-2.33215,13.91225,13.91225,0,0,0,1.66571-6.77416L357.639,229.064a6.16517,6.16517,0,0,0-5.77452-4.66429c-2.88763-.22226-4.22012.66607-4.66429,3.44238C346.4228,233.28372,345.75637,244.05611,353.53018,241.5017Zm4.77524,18.32357c-1.22155-3.44238-5.55262-5.99679-8.66214-4.553-2.99821,1.55476-2.55405,2.99857-2.55405,10.55012,0,8.21762-.55548,9.88369,3.33143,10.10559,3.44274.11132,5.77488-.99928,7.10738-3.44237A14.83872,14.83872,0,0,0,358.30542,259.82527Zm62.1296,26.98608c-.22227,2.66536-2.88763,2.4431-5.21977,2.4431H391.11679c-1.55476,0-3.44237,0-4.442-.88833-.99928-.88834-.88833-2.33215-.88833-6.44132V254.49492l-4.442-2.55441a1.65,1.65,0,0,1-.88869-1.55477,1.77149,1.77149,0,0,1,.88869-1.55439l4.442-2.55441V217.29229c0-5.55262.11095-5.77489,5.55262-5.77489h23.9875c2.55405,0,3.99786.33322,4.553.77739.99964.99964.88833,6.55226.66643,9.10631-.22227,2.66536-2.55441,2.44309-5.77489,2.44309H403.77679c-3.66464.11132-4.66392,1.22155-4.88618,4.66429-.111,3.776-.111,7.4406.111,10.99429a5.04592,5.04592,0,0,0,.99964,3.22047c1.3325,1.22155,3.77559,1.1106,7.21834,1.1106a34.84245,34.84245,0,0,1,3.8869.111c2.66536,0,3.33143.77738,3.44274,3.44274a49.04934,49.04934,0,0,1-.11131,6.99644c0,1.55476-.88833,2.33214-2.4431,2.44309-1.66571.111-4.22012.111-7.44059.111-4.21976,0-5.33036.55548-5.55262,5.33072a80.50134,80.50134,0,0,0-.111,9.10631c.22226,3.55369,1.22154,4.66429,4.88618,4.77524h10.88334c3.33143.111,5.55262-.22227,5.88584,2.33214A41.56236,41.56236,0,0,1,420.435,286.81135Zm51.52261.111a1.79307,1.79307,0,0,1-1.66571,2.2212,59.13323,59.13323,0,0,1-9.995.111c-2.44291-.33322-2.77613-2.88726-3.44219-5.99679-.33322-1.66571-1.1106-4.66429-2.2212-8.99536l-2.10988-8.99536c-.44416-2.10988-.99964-4.99714-4.22012-4.553s-2.99821,3.44237-3.10952,6.88511v15.65858c0,3.33143.44416,5.88584-2.665,5.99679-2.55441.111-5.21977.111-7.88476,0-2.99858-.111-2.55441-2.77631-2.55441-6.441V254.60587l-4.442-2.4431a1.95721,1.95721,0,0,1-.88834-1.66571,1.77174,1.77174,0,0,1,.88834-1.55476l4.442-2.55441V217.181c0-2.77631.22226-4.442.77738-4.99713.99965-.99965,4.22012-.77739,10.66107-.77739h5.88584a31.2657,31.2657,0,0,1,9.55029,1.3325,13.843,13.843,0,0,1,10.66108,12.88227c.111,2.99821.111,9.55048,0,19.76738a12.93541,12.93541,0,0,1-3.22048,7.88477c-1.55476,1.888-1.888,4.22012-1.22155,6.99643.99929,3.55369,2.99822,11.10524,5.99679,22.87691A20.76249,20.76249,0,0,1,471.95763,286.9223Zm-19.98947-61.85656a14.43663,14.43663,0,0,1-1.66571-.33285c-6.21905-.77738-4.99714,2.22083-4.99714,11.43845,0,4.88619.111,7.99572.111,8.21762a3.36874,3.36874,0,0,0,2.77631,3.55369,7.19049,7.19049,0,0,0,8.88405-5.55262c.11131-.66607.22226-1.1106.22226-1.3325v-9.99464C457.07662,227.5092,455.63317,225.95443,451.96816,225.06574ZM69.00464,145.82507,250.54736,41.01074,432.09155,145.82507v35.7605h-8.28723V150.60968L250.54736,50.5799,77.29193,150.60968v30.97589H69.00464ZM302.7644,169.69928a1.21729,1.21729,0,0,1-2.43457.00128l-.01269-18.85742-10.32568,10.326a1.23583,1.23583,0,0,1-1.72168.00043,1.21947,1.21947,0,0,1,0-1.72168l12.04565-12.04554-.00513-8.11114-8.13842,8.13892a1.2793,1.2793,0,0,1-1.72132-.00043,1.21869,1.21869,0,0,1,0-1.72125l9.8584-9.858-.00513-8.32849-5.9508,5.9513a1.23279,1.23279,0,0,1-1.72119,0,1.21837,1.21837,0,0,1,.00036-1.72211l8.01795-8.01843a1.23359,1.23359,0,0,1,.9187-.3515,1.17018,1.17018,0,0,1,.85205.35064l8.01929,8.02015a1.21785,1.21785,0,0,1,.00048,1.72082,1.235,1.235,0,0,1-1.72168.00079l-5.98071-5.98071.00513,8.33789,9.87768,9.87763a1.21831,1.21831,0,0,1,0,1.72168,1.234,1.234,0,0,1-1.72119.00042l-8.15478-8.15472.00439,8.11969,12.05225,12.05194a1.21786,1.21786,0,0,1-.00122,1.72253,1.2812,1.2812,0,0,1-1.72-.00042l-10.329-10.32947Zm-50.39868-.13843a1.7981,1.7981,0,1,1-3.59619.00134l-.02331-33.53668L230.26086,154.512a1.8237,1.8237,0,0,1-2.54321,0,1.80034,1.80034,0,0,1,0-2.543l21.02625-21.02636-.00855-14.99231L234.05029,130.6355a1.83007,1.83007,0,0,1-2.543-.00086,1.80035,1.80035,0,0,1,.00043-2.54254l17.225-17.22467-.00855-15.37121L237.8407,106.38013a1.82261,1.82261,0,0,1-2.543,0,1.80066,1.80066,0,0,1,.00012-2.54383L249.233,89.90118a1.92537,1.92537,0,0,1,2.63013,0L265.799,103.83759a1.79909,1.79909,0,0,1-.00061,2.54254,1.82265,1.82265,0,0,1-2.54236.00042L252.3208,95.44519l.00855,15.38763L269.5885,128.0921a1.80086,1.80086,0,0,1,0,2.5434,1.82351,1.82351,0,0,1-2.54272.00043L252.332,115.92267l.0083,15.00824L273.37842,151.969a1.7853,1.7853,0,0,1-1.27112,3.0564,1.80479,1.80479,0,0,1-1.27173-.51343L252.3429,136.0199Zm-51.577.13843a1.21723,1.21723,0,0,1-2.43445.00128l-.01306-18.85742-10.32563,10.326a1.23441,1.23441,0,0,1-1.72119.00043,1.21882,1.21882,0,0,1-.00042-1.72168l12.04553-12.04554-.00446-8.11114-8.13885,8.13892a1.27922,1.27922,0,0,1-1.72125-.00043,1.21882,1.21882,0,0,1,.00042-1.72168l9.85773-9.85755-.0047-8.32849-5.95123,5.9513a1.2336,1.2336,0,0,1-1.72119,0,1.21859,1.21859,0,0,1,.00018-1.72211l8.01843-8.01843a1.20412,1.20412,0,0,1,.91828-.3515,1.153,1.153,0,0,1,.85247.35064l8.01947,8.02015a1.218,1.218,0,0,1-.00018,1.72125,1.23412,1.23412,0,0,1-1.721.00036l-5.98053-5.98071.00452,8.33789,9.87781,9.87763a1.21892,1.21892,0,0,1,0,1.72168,1.23531,1.23531,0,0,1-1.72126.00042l-8.15466-8.15472.00452,8.11969,12.05218,12.05194a1.218,1.218,0,0,1-.00067,1.72211,1.23418,1.23418,0,0,1-1.72034,0l-10.32946-10.32947ZM23.01447,188.465H475.89038v6.62982H23.01447ZM432.09155,355.45294,250.54736,460.26648,69.00464,355.45294V319.4585h8.28729v31.20983L250.54736,450.69727l173.257-100.02894V319.4585h8.28723ZM132.46,345.92151l.07257-.16272,6.989-15.58026h3.91717l.03064.06811,7.031,15.67487h-3.99964l-1.13019-2.65936h-7.80322l-1.13019,2.65936Zm22.30957-15.4364v-.30658h3.96723l3.57177,5.42334,3.55023-5.42334h3.96717v.30658l-.02027.02972-5.18487,7.49079,5.29352,7.6535v.26239h-4.01093l-3.59436-5.35932-3.59485,5.35932h-4.01092v-.2619l.02032-.02979,5.229-7.6242Zm32.47284,5.85382v3.26666h-7.64545v2.89423h8.42084v3.42169H175.97552v-15.743h11.73206v3.39959h-8.11066v2.76081Zm15.43414-2.84961v-3.31079h13.10614v3.31079h-4.72052v12.43219h-3.66558V333.48932Zm29.804,2.91638v-6.20508H236.124v15.743h-3.64355v-6.1383H225.775v6.1383h-3.68768v-15.743H225.775v6.20508Zm-5.296,37.90509a30.1433,30.1433,0,0,0,7.30456-4.00226c.2212-.14312,4.69446-2.9989,5.62256-3.396a1.102,1.102,0,0,1,1.28076.304l3.454,4.09058a.49927.49927,0,0,1,.06092.08612l.095.1579.06176.01.22095,1.99334a1.109,1.109,0,0,1-.25769.83857c.95447,1.10864,2.47278,2.93359,3.64466,4.62725a1.17673,1.17673,0,0,1,.07446.12482c.29663.56738,1.40747,2.66028,2.69018,4.68012,1.28052-2.01655,2.38868-4.10425,2.67627-4.65442a1.26473,1.26473,0,0,1,.08667-.14832c1.17273-1.69537,2.69129-3.52081,3.64575-4.62945a1.10716,1.10716,0,0,1-.25769-.83728l.221-1.99463.064-.03217.06347-.097a.43229.43229,0,0,1,.03-.0387.54906.54906,0,0,1,.07129-.09876l3.442-4.07708a1.1015,1.1015,0,0,1,1.28271-.304c.927.39624,5.40039,3.252,5.59046,3.37335a30.24875,30.24875,0,0,0,7.321,4.01837,41.094,41.094,0,0,0,6.757,1.74109,1.34654,1.34654,0,0,1,.99231.64283,1.50538,1.50538,0,0,1,.14172,1.16516,18.97264,18.97264,0,0,1-7.41821,11.53277,2.84458,2.84458,0,0,1-1.37866.82288,1.34878,1.34878,0,0,1-1.48706-.71375l-3.89771-6.97027a28.94441,28.94441,0,0,0-2.17456-3.63819l-.07373-.10876a1.48039,1.48039,0,0,0-1.05334-.48492,1.35488,1.35488,0,0,0-.84143.36181l-1.26758,1.83112c-1.30811,1.71429-4.54138,5.93664-7.48511,9.66424,1.05176,1.20563,2.2417,2.56024,3.366,3.81873l.05859.064c1.571,1.75714,2.71729,2.99195,3.40747,3.67041,2.60254,2.57178,8.2107,10.09662,8.26538,10.17054l3.08325,4.11883a2.51963,2.51963,0,0,1-.07153,3.26727,6.679,6.679,0,0,1-1.26294,1.23609c-.37646.4162-1.0393.59454-2.31836.631-1.30273.03742-2.02807.0766-2.27954.0918a2.56077,2.56077,0,0,1-.42261.03088,3.144,3.144,0,0,1-.57141-.05133,2.6876,2.6876,0,0,1-2.10315-1.8363l-.67016-1.91547a15.413,15.413,0,0,0-2.32764-4.31409c-.6-.68676-1.37988-1.60321-2.14819-2.50567l-.1753-.20575c-.83374-.98163-2.38525-2.80835-2.59216-2.98975-.26831-.21612-.90784-.94073-3.30139-3.70086l-.14917-.17176c-.86523-.99731-1.83838-2.11859-2.83789-3.26117-.99939,1.14258-1.97266,2.26361-2.838,3.26117l-.14917.17176c-2.39344,2.76013-3.03308,3.48474-3.314,3.7113-.19421.171-1.74585,1.99768-2.57947,2.97888l-.17541.20618c-.76831.90246-1.54822,1.81891-2.14795,2.50525a15.429,15.429,0,0,0-2.33044,4.3219l-.66748,1.90765a2.68792,2.68792,0,0,1-2.10328,1.83673,3.12863,3.12863,0,0,1-.56689.0509,3.03965,3.03965,0,0,1-.471-.03521c-.20752-.01044-.933-.04962-2.23584-.087-1.27893-.0365-1.94177-.21484-2.31824-.631a6.68094,6.68094,0,0,1-1.26263-1.23566,2.527,2.527,0,0,1-.053-3.29077l3.06628-4.09839c.05286-.07129,5.66114-7.59613,8.2627-10.16705.68994-.67847,1.83459-1.91107,3.40259-3.66474l.0603-.06482c1.12927-1.26477,2.31934-2.61962,3.36987-3.8244-2.9436-3.7276-6.17688-7.95-7.48486-9.66424l-.0675-.08789-1.19935-1.74189a1.36667,1.36667,0,0,0-.851-.36358,1.5167,1.5167,0,0,0-1.04467.48535l-.07337.10828a28.81471,28.81471,0,0,0-2.15893,3.60693l-3.92487,7.0238a1.34242,1.34242,0,0,1-1.4751.692,2.84257,2.84257,0,0,1-1.37939-.82288,18.97246,18.97246,0,0,1-7.41828-11.53277,1.50711,1.50711,0,0,1,.139-1.16169,1.3632,1.3632,0,0,1,1.014-.64892A41.1144,41.1144,0,0,0,227.18445,374.31079Zm30.58826-28.81213v.42285h-4.00562l-3.96667-5.09693H247.4679v5.09693h-3.68763v-15.743h7.47266c4.0227,0,5.85474,2.77075,5.85474,5.34533-.01978,1.79291-.45667,3.77338-3.51221,4.927Zm5.50708-7.44886c0-5.01037,3.33337-8.24816,8.49206-8.24816s8.49207,3.23779,8.49207,8.24816c0,5.01081-3.33326,8.2486-8.49207,8.2486S263.27979,343.06061,263.27979,338.0498Zm21.61987-7.87127h4.12549l.02783.07574,1.92773,5.29621,1.29785,4.65606,3.38623-10.028h2.42481l.0271.07709,3.51,9.95227,1.23389-4.62543,1.86865-5.40393h4.12451l-.05591.15466-5.65674,15.56622h-2.99658l-3.24267-8.45324-3.135,8.45324h-2.99707Zm29.94287,15.743v-15.743h3.66553v15.743Zm21.8938-10.41474v-5.32824h3.70984v15.743h-3.14124l-7.531-9.69483.124,4.7453v4.94953h-3.7323v-15.743h3.14123l.03479.04461,7.59986,9.79584Zm18.86084,7.43622a4.83448,4.83448,0,0,0,3.18689-1.02832v-2.30908h-3.70117V336.494h6.9237v6.91058l-.02075.03021c-1.35706,1.94391-3.51367,2.92988-6.41064,2.92988-6.16309,0-8.35914-4.2837-8.35914-8.29279a8.692,8.692,0,0,1,2.02649-5.83582,8.22326,8.22326,0,0,1,6.35462-2.52325,7.70508,7.70508,0,0,1,5.86658,2.4281l.07971.0816-2.30994,2.31-.08166-.078a5.31546,5.31546,0,0,0-3.55469-1.34161c-3.0249,0-4.75965,1.80731-4.75965,4.959C350.83752,340.31879,352.084,342.943,355.59717,342.943Zm120.84106-30.13086H23.56232v-6.62976H476.43823Z"/></svg>